<?xml version="1.0" encoding="UTF-8" standalone="no"?>
<svg
   xmlns:dc="http://purl.org/dc/elements/1.1/"
   xmlns:cc="http://creativecommons.org/ns#"
   xmlns:rdf="http://www.w3.org/1999/02/22-rdf-syntax-ns#"
   xmlns:svg="http://www.w3.org/2000/svg"
   xmlns="http://www.w3.org/2000/svg"
   xmlns:sodipodi="http://sodipodi.sourceforge.net/DTD/sodipodi-0.dtd"
   xmlns:inkscape="http://www.inkscape.org/namespaces/inkscape"
   xml:space="preserve"
   height="60"
   viewBox="0 0 1346.4 475.2"
   width="170"
   version="1.1"
   y="0px"
   x="0px"
   enable-background="new 0 0 792 612"
   id="svg2"
   inkscape:version="0.91 r13725"
   sodipodi:docname="desktopapp.svg"><metadata
     id="metadata12"><rdf:RDF><cc:Work
         rdf:about=""><dc:format>image/svg+xml</dc:format><dc:type
           rdf:resource="http://purl.org/dc/dcmitype/StillImage" /></cc:Work></rdf:RDF></metadata><defs
     id="defs10" /><sodipodi:namedview
     pagecolor="#ffffff"
     bordercolor="#666666"
     borderopacity="1"
     objecttolerance="10"
     gridtolerance="10"
     guidetolerance="10"
     inkscape:pageopacity="0"
     inkscape:pageshadow="2"
     inkscape:window-width="1855"
     inkscape:window-height="1056"
     id="namedview8"
     showgrid="false"
     inkscape:zoom="8"
     inkscape:cx="57.34652"
     inkscape:cy="30.266986"
     inkscape:window-x="65"
     inkscape:window-y="24"
     inkscape:window-maximized="1"
     inkscape:current-layer="svg2" /><rect
     rx="50"
     ry="50"
     height="475.2"
     width="1346.4"
     y="-3.5527e-15"
     x="-2.8405e-15"
     id="rect4" /><path
     d="m 19,16 c -1.5,0 -3,1.5 -3,3 l 0,21 -6,3 0,1.5 c 0,0 0,1.5 1.5,1.5 l 45,0 C 58,46 58,44.5 58,44.5 L 58,43 52,40 52,19 c 0,-1.5 -1.5,-3 -3,-3 z m 68.531,2.094 0,12.156 2.383,0 0,-2.719 1.024,-0.82 2.515,3.539 2.75,0 -3.68,-4.945 3.469,-3.789 -2.687,0 -2.446,2.656 -1.039,1.328 -0.031,0 0.125,-1.984 0,-5.422 z m -29.093,0.734 0,11.422 3.234,0 c 2.021,0 3.565,-0.5 4.633,-1.5 1.073,-1 1.609,-2.44 1.609,-4.32 0,-1.766 -0.516,-3.141 -1.547,-4.125 -1.031,-0.985 -2.479,-1.477 -4.344,-1.477 z M 19,18.988 l 30,0 L 49,37 19,37 Z m 79.586,0.668 -0.688,1.844 -1.312,0.797 0,1.008 1.141,0 0,4.211 c 0,0.963 0.216,1.687 0.648,2.172 0.437,0.479 1.133,0.718 2.085,0.718 0.87,0 1.59,-0.133 2.19,-0.398 l 0,-1.774 c -0.58,0.183 -1.08,0.274 -1.5,0.274 -0.31,0 -0.57,-0.081 -0.76,-0.242 -0.19,-0.162 -0.28,-0.412 -0.28,-0.75 l 0,-4.211 2.44,0 0,-1.789 -2.44,0 0,-1.86 z m -37.727,1.156 1.289,0 c 2.167,0 3.25,1.227 3.25,3.68 0,2.505 -1.166,3.758 -3.5,3.758 l -1.039,0 z m 71.311,0.524 c -1.22,0 -2.34,0.263 -3.34,0.789 l 0.79,1.609 c 0.94,-0.422 1.76,-0.632 2.46,-0.632 0.9,0 1.36,0.442 1.36,1.328 l 0,0.382 -1.52,0.047 c -1.31,0.047 -2.28,0.292 -2.94,0.735 -0.64,0.437 -0.96,1.12 -0.96,2.047 0,0.885 0.24,1.567 0.71,2.047 0.49,0.479 1.15,0.718 1.99,0.718 0.68,0 1.23,-0.096 1.66,-0.289 0.42,-0.198 0.84,-0.549 1.24,-1.055 l 0.06,0 0.46,1.188 1.66,0 0,-5.82 c 0,-1.042 -0.31,-1.818 -0.93,-2.328 -0.63,-0.511 -1.53,-0.766 -2.7,-0.766 z m -58.475,0.016 c -1.291,0 -2.304,0.401 -3.039,1.203 -0.729,0.797 -1.094,1.927 -1.094,3.39 0,1.422 0.396,2.521 1.188,3.297 0.792,0.776 1.891,1.164 3.297,1.164 0.682,0 1.26,-0.052 1.734,-0.156 0.474,-0.099 0.92,-0.253 1.336,-0.461 l 0,-1.844 c -0.51,0.24 -1,0.414 -1.469,0.524 -0.468,0.109 -0.966,0.164 -1.492,0.164 -0.677,0 -1.203,-0.19 -1.578,-0.571 -0.375,-0.38 -0.575,-0.908 -0.601,-1.585 l 5.632,0 0,-1.157 c 0,-1.239 -0.343,-2.211 -1.031,-2.914 -0.687,-0.703 -1.648,-1.054 -2.883,-1.054 z m 8.797,0 c -1.104,0 -1.958,0.213 -2.562,0.64 -0.599,0.422 -0.899,1.021 -0.899,1.797 0,0.453 0.071,0.836 0.211,1.149 0.146,0.307 0.375,0.58 0.688,0.82 0.317,0.239 0.812,0.5 1.484,0.781 0.469,0.198 0.844,0.372 1.125,0.523 0.281,0.146 0.479,0.279 0.594,0.399 0.114,0.115 0.172,0.266 0.172,0.453 0,0.5 -0.433,0.75 -1.297,0.75 -0.422,0 -0.912,-0.07 -1.469,-0.211 -0.552,-0.141 -1.049,-0.315 -1.492,-0.523 l 0,1.968 c 0.391,0.167 0.81,0.292 1.258,0.375 0.448,0.089 0.989,0.133 1.625,0.133 1.239,0 2.169,-0.234 2.789,-0.703 0.625,-0.469 0.937,-1.151 0.937,-2.047 0,-0.432 -0.075,-0.804 -0.226,-1.117 -0.151,-0.312 -0.386,-0.588 -0.703,-0.828 -0.318,-0.24 -0.818,-0.497 -1.5,-0.773 -0.766,-0.308 -1.263,-0.54 -1.493,-0.696 -0.224,-0.156 -0.336,-0.341 -0.336,-0.554 0,-0.381 0.352,-0.571 1.055,-0.571 0.396,0 0.784,0.06 1.164,0.18 0.38,0.12 0.789,0.273 1.227,0.461 l 0.718,-1.719 c -0.994,-0.458 -2.018,-0.687 -3.07,-0.687 z m 25.638,0 c -1.35,0 -2.39,0.395 -3.14,1.187 -0.74,0.792 -1.11,1.901 -1.11,3.328 0,0.917 0.17,1.719 0.51,2.406 0.34,0.688 0.84,1.217 1.48,1.586 0.64,0.365 1.38,0.547 2.22,0.547 1.33,0 2.38,-0.401 3.13,-1.203 0.75,-0.802 1.12,-1.914 1.12,-3.336 0,-0.916 -0.17,-1.716 -0.51,-2.398 -0.35,-0.683 -0.84,-1.206 -1.48,-1.571 -0.64,-0.364 -1.38,-0.546 -2.22,-0.546 z m 11.04,0 c -1.09,0 -1.92,0.432 -2.47,1.296 l -0.11,0 -0.34,-1.132 -1.94,0 0,12.578 2.39,0 0,-3.539 c 0,-0.115 -0.05,-0.537 -0.13,-1.266 l 0.13,0 c 0.58,0.745 1.38,1.117 2.41,1.117 0.68,0 1.28,-0.179 1.78,-0.539 0.51,-0.359 0.89,-0.883 1.16,-1.57 0.28,-0.688 0.42,-1.498 0.42,-2.43 0,-1.416 -0.29,-2.523 -0.88,-3.32 -0.58,-0.797 -1.39,-1.195 -2.42,-1.195 z m 23.94,0 c -1.09,0 -1.92,0.432 -2.48,1.296 l -0.11,0 -0.33,-1.132 -1.94,0 0,12.578 2.38,0 0,-3.539 c 0,-0.115 -0.04,-0.537 -0.12,-1.266 l 0.12,0 c 0.59,0.745 1.39,1.117 2.42,1.117 0.68,0 1.27,-0.179 1.78,-0.539 0.5,-0.359 0.89,-0.883 1.16,-1.57 0.28,-0.688 0.42,-1.498 0.42,-2.43 0,-1.416 -0.3,-2.523 -0.88,-3.32 -0.58,-0.797 -1.39,-1.195 -2.42,-1.195 z m 10.12,0 c -1.09,0 -1.91,0.432 -2.47,1.296 l -0.11,0 -0.34,-1.132 -1.93,0 0,12.578 2.38,0 0,-3.539 c 0,-0.115 -0.04,-0.537 -0.13,-1.266 l 0.13,0 c 0.58,0.745 1.39,1.117 2.41,1.117 0.68,0 1.28,-0.179 1.78,-0.539 0.51,-0.359 0.9,-0.883 1.17,-1.57 0.27,-0.688 0.41,-1.498 0.41,-2.43 0,-1.416 -0.29,-2.523 -0.87,-3.32 -0.59,-0.797 -1.39,-1.195 -2.43,-1.195 z m -79.519,1.695 c 0.505,0 0.906,0.161 1.203,0.484 0.297,0.318 0.451,0.771 0.461,1.36 l -3.344,0 c 0.042,-0.589 0.206,-1.042 0.492,-1.36 0.287,-0.323 0.683,-0.484 1.188,-0.484 z m 44.699,0.211 c 0.56,0 0.97,0.216 1.23,0.648 0.27,0.427 0.4,1.071 0.4,1.93 0,1.76 -0.53,2.641 -1.6,2.641 -0.61,0 -1.05,-0.204 -1.33,-0.61 -0.28,-0.406 -0.41,-1.078 -0.41,-2.015 l 0,-0.258 c 0.01,-0.834 0.15,-1.43 0.42,-1.789 0.27,-0.365 0.7,-0.547 1.29,-0.547 z m 23.93,0 c 0.57,0 0.98,0.216 1.24,0.648 0.26,0.427 0.4,1.071 0.4,1.93 0,1.76 -0.54,2.641 -1.6,2.641 -0.61,0 -1.05,-0.204 -1.33,-0.61 -0.28,-0.406 -0.42,-1.078 -0.42,-2.015 l 0,-0.258 c 0.01,-0.834 0.15,-1.43 0.42,-1.789 0.28,-0.365 0.71,-0.547 1.29,-0.547 z m 10.13,0 c 0.56,0 0.97,0.216 1.23,0.648 0.27,0.427 0.4,1.071 0.4,1.93 0,1.76 -0.53,2.641 -1.6,2.641 -0.6,0 -1.05,-0.204 -1.33,-0.61 -0.27,-0.406 -0.41,-1.078 -0.41,-2.015 l 0,-0.258 c 0.01,-0.834 0.15,-1.43 0.42,-1.789 0.27,-0.365 0.7,-0.547 1.29,-0.547 z m -44.37,0.015 c 0.64,0 1.1,0.217 1.38,0.649 0.29,0.432 0.43,1.081 0.43,1.945 0,0.87 -0.14,1.526 -0.43,1.969 -0.27,0.437 -0.73,0.656 -1.36,0.656 -0.64,0 -1.11,-0.221 -1.39,-0.664 -0.28,-0.443 -0.43,-1.096 -0.43,-1.961 0,-0.87 0.15,-1.518 0.43,-1.945 0.28,-0.432 0.74,-0.649 1.37,-0.649 z m 25.34,2.93 0,0.719 c 0,0.526 -0.17,0.948 -0.5,1.266 -0.33,0.317 -0.77,0.476 -1.32,0.476 -0.77,0 -1.16,-0.336 -1.16,-1.008 0,-0.468 0.17,-0.817 0.51,-1.047 0.34,-0.229 0.85,-0.354 1.55,-0.375 z m -51.042,10.209 0,1.959 0.018,0.34 0.031,0.346 -0.056,0 c -0.349,-0.475 -0.851,-0.711 -1.504,-0.711 -0.627,0 -1.116,0.218 -1.467,0.658 -0.352,0.439 -0.527,1.058 -0.527,1.851 0,0.794 0.172,1.406 0.521,1.836 0.352,0.431 0.843,0.647 1.473,0.647 0.671,0 1.175,-0.245 1.511,-0.734 l 0.04,0 0.097,0.646 0.594,0 0,-6.838 z m -10.673,0.233 c -0.123,0 -0.227,0.04 -0.309,0.119 -0.082,0.076 -0.123,0.198 -0.123,0.365 0,0.164 0.041,0.287 0.123,0.369 0.082,0.079 0.186,0.117 0.309,0.117 0.117,0 0.217,-0.038 0.302,-0.117 0.085,-0.082 0.127,-0.205 0.127,-0.369 0,-0.164 -0.042,-0.286 -0.127,-0.365 -0.085,-0.079 -0.185,-0.119 -0.302,-0.119 z m -9.356,0.179 1.709,6.426 0.738,0 1.256,-4.275 c 0.141,-0.46 0.244,-0.885 0.309,-1.272 0.003,0.059 0.043,0.234 0.119,0.524 0.076,0.29 0.144,0.53 0.205,0.72 l 1.297,4.303 0.738,0 1.719,-6.426 -0.791,0 -1.012,3.961 c -0.155,0.598 -0.26,1.104 -0.316,1.52 -0.097,-0.572 -0.215,-1.083 -0.356,-1.537 l -1.209,-3.944 -0.791,0 -1.15,3.908 c -0.155,0.513 -0.272,1.037 -0.352,1.573 -0.064,-0.451 -0.168,-0.955 -0.308,-1.512 L 63.16,36.824 Z m 13.547,1.522 c -0.331,0 -0.631,0.065 -0.9,0.197 -0.27,0.129 -0.48,0.311 -0.629,0.549 l -0.035,0 -0.118,-0.658 -0.593,0 0,4.816 0.728,0 0,-2.527 c 0,-0.627 0.117,-1.077 0.352,-1.35 0.234,-0.272 0.603,-0.408 1.107,-0.408 0.381,0 0.661,0.097 0.84,0.291 0.179,0.193 0.268,0.486 0.268,0.879 l 0,3.115 0.73,0 0,-3.143 c 0,-0.615 -0.146,-1.061 -0.439,-1.339 -0.293,-0.282 -0.731,-0.422 -1.311,-0.422 z m 10.719,0 c -0.697,0 -1.242,0.218 -1.635,0.658 -0.393,0.436 -0.588,1.049 -0.588,1.834 0,0.507 0.09,0.948 0.272,1.326 0.181,0.378 0.439,0.669 0.773,0.871 0.334,0.202 0.716,0.303 1.147,0.303 0.697,0 1.245,-0.221 1.64,-0.66 0.396,-0.443 0.592,-1.055 0.592,-1.84 0,-0.765 -0.199,-1.372 -0.598,-1.82 -0.395,-0.449 -0.929,-0.672 -1.603,-0.672 z m 11.957,0 c -0.557,0 -0.993,0.113 -1.313,0.342 -0.319,0.225 -0.48,0.535 -0.48,0.927 0,0.22 0.046,0.408 0.137,0.567 0.093,0.158 0.234,0.301 0.421,0.427 0.191,0.123 0.511,0.267 0.959,0.434 0.472,0.182 0.788,0.34 0.95,0.475 0.164,0.131 0.246,0.293 0.246,0.48 0,0.249 -0.104,0.434 -0.309,0.557 -0.205,0.12 -0.498,0.181 -0.879,0.181 -0.246,0 -0.503,-0.034 -0.769,-0.101 -0.264,-0.068 -0.511,-0.16 -0.743,-0.278 l 0,0.678 c 0.358,0.202 0.856,0.303 1.495,0.303 0.603,0 1.072,-0.122 1.406,-0.365 0.337,-0.244 0.497,-0.589 0.497,-1.037 0,-0.32 -0.1,-0.584 -0.3,-0.795 -0.199,-0.211 -0.583,-0.421 -1.154,-0.629 -0.416,-0.156 -0.697,-0.274 -0.844,-0.356 -0.146,-0.082 -0.255,-0.169 -0.322,-0.26 -0.065,-0.09 -0.096,-0.201 -0.096,-0.33 0,-0.19 0.088,-0.338 0.264,-0.447 0.176,-0.108 0.435,-0.162 0.781,-0.162 0.393,0 0.831,0.1 1.315,0.299 l 0.256,-0.594 c -0.492,-0.211 -1,-0.316 -1.518,-0.316 z m -27.237,0.088 0,4.816 0.729,0 0,-4.816 z m 18.084,0 1.313,4.816 0.844,0 0.91,-2.816 c 0.088,-0.279 0.191,-0.675 0.308,-1.188 l 0.036,0 c 0.152,0.612 0.254,1.005 0.31,1.178 l 0.885,2.826 0.865,0 1.332,-4.816 -0.756,0 c -0.559,2.144 -0.867,3.327 -0.92,3.546 -0.049,0.22 -0.08,0.381 -0.091,0.487 l -0.036,0 c -0.058,-0.343 -0.169,-0.766 -0.334,-1.27 l -0.861,-2.763 -0.791,0 -0.883,2.763 c -0.052,0.156 -0.116,0.366 -0.189,0.633 -0.07,0.264 -0.122,0.48 -0.154,0.647 l -0.036,0 c -0.023,-0.22 -0.117,-0.647 -0.281,-1.28 -0.161,-0.633 -0.396,-1.553 -0.707,-2.763 z m -8.468,0.523 c 0.498,0 0.86,0.147 1.086,0.439 0.228,0.291 0.341,0.777 0.341,1.459 l 0,0.153 c 0,0.603 -0.112,1.042 -0.337,1.314 -0.223,0.27 -0.584,0.405 -1.082,0.405 -0.437,0 -0.767,-0.158 -0.993,-0.471 -0.225,-0.314 -0.338,-0.777 -0.338,-1.393 0,-0.606 0.113,-1.075 0.338,-1.406 0.229,-0.334 0.557,-0.5 0.985,-0.5 z m 5.642,0.008 c 0.484,0 0.848,0.159 1.094,0.478 0.249,0.317 0.373,0.783 0.373,1.395 0,0.618 -0.124,1.088 -0.373,1.41 -0.246,0.319 -0.608,0.479 -1.086,0.479 -0.477,0 -0.838,-0.161 -1.084,-0.483 -0.246,-0.322 -0.369,-0.791 -0.369,-1.406 0,-0.621 0.12,-1.089 0.363,-1.402 0.243,-0.314 0.605,-0.471 1.082,-0.471 z"
     id="path6"
     transform="scale(7.92,7.92)"
     inkscape:connector-curvature="0"
     style="fill:#ffffff"
     sodipodi:nodetypes="sscccsscccsssccccccccccccccccccscscscccccccccccscsccscscccccccsssccsccsscccscscccccscsscsssccccscccscsscscccccssccccscsccccsssccsscsccsssccssccccccsccsccscssccccccsccsccssssccccccsccsccscssccccsscssssccsscssssccsscsscsccsscscssscscscssccccccccscscsccccccscscscssscccccscccccccccccccccscccccccscscsccscsscscsscscsscsccccscscccscsccccscsccscccccccccccccccccccccccccccccscsscscscsscscssscs" /></svg>